<svg xmlns="http://www.w3.org/2000/svg" xmlns:xlink="http://www.w3.org/1999/xlink" viewBox="0 0 407.8 104.19"><defs><style>.cls-1{fill:url(#linear-gradient);}.cls-2{fill:url(#linear-gradient-2);}.cls-3{fill:aqua;}.cls-4{fill:#fff;}.cls-5{fill:#1a1153;fill-rule:evenodd;}</style><linearGradient id="linear-gradient" x1="8.59" y1="108.11" x2="54.71" y2="53.15" gradientUnits="userSpaceOnUse"><stop offset="0" stop-color="#00d8f1"/><stop offset="0.78" stop-color="#007ed1"/></linearGradient><linearGradient id="linear-gradient-2" x1="36.05" y1="11.24" x2="86.19" y2="98.09" gradientUnits="userSpaceOnUse"><stop offset="0" stop-color="#00d8f1"/><stop offset="1" stop-color="#007ed1"/></linearGradient></defs><g id="Layer_2" data-name="Layer 2"><g id="Layer_1-2" data-name="Layer 1"><path class="cls-1" d="M.79,95,4,89.18l27.82-50c9-8.61,8.78,17.4,13.57,25.69l0-.18,12,21.45-8.15,14.6a6.14,6.14,0,0,1-5.54,3.48H6.16A6.16,6.16,0,0,1,0,98a6.09,6.09,0,0,1,.8-3Z"/><path class="cls-2" d="M101.65,81.52l1.77-2.59,0-2.24L62.76,3.56a6.16,6.16,0,0,0-11-.28h0L31.4,39.78l0,0c-1.63,3-3.24,5.94-4.91,8.93l0,0a6.16,6.16,0,0,1,10.11.46h0l9.7,17.44,19.35,34.48h0a6.14,6.14,0,0,0,5.3,3h3.36l.8-.25,7.27-3.69,9.38-9.17L96,87.44l5.62-5.92Z"/><path class="cls-3" d="M103.44,76.67c-.21,10.28-19,7.47-22,6.61.73,6.7,1.63,17.78-7,20.91C85.05,103,105,87.26,103.44,76.67Z"/><path class="cls-4" d="M78,56.86a2.14,2.14,0,0,1,1.32-1,2.12,2.12,0,0,1,1.64.22,2.19,2.19,0,0,1,1,1.32A2.17,2.17,0,0,1,81.77,59L68.1,82.71a2.16,2.16,0,0,1-1.33,1,2.12,2.12,0,0,1-1.64-.22h0a2.16,2.16,0,0,1-.8-3h0L78,56.86ZM60.78,25.73a2.21,2.21,0,0,1,1.32-1,2.19,2.19,0,0,1,1.65.22,2.23,2.23,0,0,1,1,1.33,2.17,2.17,0,0,1-.22,1.64h0L50.87,51.59h0a2.17,2.17,0,1,1-3.76-2.18h0L60.78,25.74Zm8.67,15.88a2.17,2.17,0,0,1,4,.53,2.19,2.19,0,0,1-.22,1.65L59.54,67.46a2.17,2.17,0,0,1-3,.79h0a2.14,2.14,0,0,1-1-1.32,2.17,2.17,0,0,1,.22-1.64h0L69.45,41.61Z"/><path class="cls-5" d="M121.32,56.93c0,14.87,9.63,24.76,21.67,24.76,7.56,0,13-3.61,15.82-7.74v7h12.12V33.29H158.81v6.79c-2.84-4-8.08-7.57-15.74-7.57-12.12,0-21.75,9.55-21.75,24.42Zm37.49.17c0,9-6,14-12.64,14-6.45,0-12.55-5.16-12.55-14.19s6.1-13.84,12.55-13.84c6.62,0,12.64,5,12.64,14Zm30.78.95c0-9.2,4.3-11.95,11.43-11.95h3.18V33.46a16.51,16.51,0,0,0-14.61,8.08V34.15h-12V81.78h12V58.05ZM214.18,67c0,10.92,6.1,14.79,15.22,14.79H237V71.63h-5.59c-3.78,0-5.07-1.37-5.07-4.55V44H237V34.15H226.3V22.37H214.18V34.15H208.5V44h5.68V67Zm27.17,14.79h12V34.15h-12V81.78Zm6.1-53.31a7.06,7.06,0,1,0-7.39-7,7.11,7.11,0,0,0,7.39,7ZM257.85,58c0,15,9.81,24.59,23.56,24.59,11.87,0,19.86-6.7,22.44-16.85h-13c-1.46,4.3-4.56,6.53-9.54,6.53-6.71,0-11.18-5-11.18-14.27s4.47-14.36,11.18-14.36c5,0,8.16,2.58,9.54,6.62h13c-2.58-10.66-10.57-16.85-22.44-16.85-13.75,0-23.56,9.63-23.56,24.59Zm97.24-23.81H343V60.37c0,7.65-4.12,11.78-10.66,11.78-6.36,0-10.57-4.13-10.57-11.78V34.15h-12V62.09c0,13.07,8,20.29,19.09,20.29A17.56,17.56,0,0,0,343,75.76v6h12.12V34.15ZM384,43.26c6.19,0,11.18,4,11.35,10.23H372.72c.95-6.53,5.5-10.23,11.26-10.23ZM406.6,66.82h-13c-1.54,3.18-4.38,5.76-9.54,5.76-6,0-10.83-4-11.44-11h34.83a28.9,28.9,0,0,0,.34-4.64c0-14.19-9.72-23.56-23.47-23.56-14.1,0-23.9,9.55-23.9,24.59s10.05,24.59,23.9,24.59c11.78,0,19.69-7,22.27-15.73Z"/></g></g></svg>