<svg xmlns="http://www.w3.org/2000/svg" viewBox="0 0 286.48 68.18"><defs><style>.cls-1{fill:#1a1153;fill-rule:evenodd;}</style></defs><g id="Layer_2" data-name="Layer 2"><g id="Layer_1-2" data-name="Layer 1"><path class="cls-1" d="M0,42.56C0,57.43,9.63,67.32,21.67,67.32c7.56,0,13-3.61,15.82-7.74v7H49.61V18.91H37.49v6.8c-2.84-4-8.09-7.57-15.74-7.57C9.63,18.14,0,27.68,0,42.56Zm37.49.17c0,9-6,14-12.64,14-6.45,0-12.56-5.16-12.56-14.19S18.4,28.72,24.85,28.72c6.62,0,12.64,5,12.64,14Zm30.78,1c0-9.2,4.3-11.95,11.43-11.95h3.18V19.09a16.51,16.51,0,0,0-14.61,8.08v-7.4h-12V67.41h12V43.68Zm24.59,8.94c0,10.92,6.1,14.79,15.21,14.79h7.57V57.26h-5.59c-3.78,0-5.07-1.37-5.07-4.56v-23h10.66V19.77H105V8H92.86V19.77H87.18v9.89h5.68v23ZM120,67.41h12V19.77H120V67.41Zm6.1-53.31a7.1,7.1,0,0,0,7.39-7,7.4,7.4,0,1,0-7.39,7.05Zm10.4,29.49c0,15,9.8,24.59,23.56,24.59,11.87,0,19.86-6.71,22.44-16.85h-13c-1.46,4.3-4.56,6.53-9.55,6.53-6.7,0-11.17-5-11.17-14.27S153.3,29.23,160,29.23c5,0,8.17,2.58,9.55,6.62h13C180,25.19,172,19,160.09,19c-13.76,0-23.56,9.63-23.56,24.59Zm97.24-23.82H221.65V46c0,7.65-4.13,11.78-10.66,11.78-6.36,0-10.58-4.13-10.58-11.78V19.77h-12v28c0,13.07,8,20.29,19.08,20.29a17.57,17.57,0,0,0,14.19-6.62v6h12.12V19.77Zm28.89,9.12c6.19,0,11.18,4,11.35,10.23H251.4c.94-6.53,5.5-10.23,11.26-10.23Zm22.61,23.56h-13c-1.55,3.18-4.38,5.76-9.54,5.76-6,0-10.83-4-11.44-11h34.82a27.89,27.89,0,0,0,.35-4.64C286.48,28.37,276.76,19,263,19c-14.1,0-23.91,9.54-23.91,24.59S249.16,68.18,263,68.18c11.77,0,19.69-7,22.26-15.73Z"/></g></g></svg>